<?xml version="1.0" encoding="iso-8859-1"?>
<!-- Generator: Adobe Illustrator 18.0.0, SVG Export Plug-In . SVG Version: 6.00 Build 0)  -->
<!DOCTYPE svg PUBLIC "-//W3C//DTD SVG 1.1//EN" "http://www.w3.org/Graphics/SVG/1.1/DTD/svg11.dtd">
<svg version="1.1" id="Layer_1" xmlns="http://www.w3.org/2000/svg" xmlns:xlink="http://www.w3.org/1999/xlink" x="0px" y="0px"
	 viewBox="0 0 123 50" style="enable-background:new 0 0 123 50;" xml:space="preserve">
<g>
	<path style="fill:#19559C;" d="M91.739,26.041c-0.038,2.429-0.341,4.809-1.218,7.089c-1.302,3.386-3.484,6.03-6.673,7.799
		c-1.553,0.862-3.231,1.358-4.988,1.6c-1.345,0.185-2.696,0.242-4.045,0.123c-6.103-0.537-10.301-3.695-12.681-9.304
		c-0.617-1.455-0.94-2.995-1.124-4.564c-0.185-1.578-0.209-3.158-0.081-4.739c0.259-3.213,1.162-6.209,3.101-8.83
		c2.281-3.083,5.299-4.998,9.091-5.661c1.628-0.285,3.264-0.333,4.91-0.186c2.329,0.208,4.523,0.843,6.507,2.1
		c2.952,1.871,4.955,4.502,6.117,7.785c0.551,1.556,0.861,3.164,0.975,4.81C91.676,24.722,91.704,25.382,91.739,26.041z
		 M87.317,25.898c0.012-1.802-0.232-3.689-0.886-5.508c-0.825-2.295-2.164-4.22-4.191-5.61c-2.426-1.663-5.138-2.019-7.976-1.57
		c-2.939,0.465-5.163,2.063-6.799,4.511c-1.407,2.107-2.013,4.47-2.181,6.967c-0.104,1.539-0.036,3.07,0.232,4.59
		c0.335,1.898,0.993,3.669,2.114,5.251c1.273,1.798,2.902,3.141,5.009,3.852c1.657,0.559,3.359,0.678,5.092,0.482
		c1.367-0.154,2.661-0.538,3.852-1.23c2.176-1.264,3.662-3.127,4.622-5.425C87.032,30.23,87.325,28.151,87.317,25.898z"/>
	<path style="fill:#19559C;" d="M99.464,31.766c0.101,0.615,0.16,1.221,0.305,1.806c0.538,2.165,1.927,3.604,3.934,4.486
		c1.027,0.451,2.111,0.682,3.223,0.801c1.097,0.117,2.195,0.124,3.291,0.035c1.502-0.122,2.969-0.392,4.284-1.189
		c1.492-0.904,2.215-2.245,2.244-3.978c0.01-0.61-0.041-1.21-0.21-1.799c-0.338-1.174-1.143-1.912-2.218-2.409
		c-1.14-0.527-2.331-0.902-3.546-1.201c-2.292-0.564-4.591-1.099-6.883-1.666c-1.397-0.346-2.745-0.827-3.997-1.555
		c-1.715-0.998-2.748-2.463-3.04-4.431c-0.294-1.981-0.103-3.911,0.723-5.745c0.993-2.204,2.709-3.67,4.899-4.611
		c1.251-0.537,2.568-0.813,3.921-0.94c1.213-0.114,2.424-0.112,3.635,0.007c2.335,0.231,4.509,0.903,6.379,2.379
		c1.846,1.457,2.953,3.363,3.394,5.66c0.118,0.615,0.175,1.243,0.262,1.881c-0.1,0.009-0.16,0.019-0.219,0.019
		c-1.176,0.001-2.353,0-3.529,0.002c-0.129,0-0.209-0.009-0.227-0.175c-0.312-2.859-1.97-4.851-4.728-5.675
		c-1.387-0.414-2.808-0.481-4.243-0.394c-0.969,0.059-1.923,0.205-2.841,0.53c-1.241,0.439-2.289,1.14-2.908,2.339
		c-0.613,1.188-0.768,2.453-0.449,3.756c0.196,0.8,0.689,1.396,1.399,1.809c0.931,0.541,1.942,0.886,2.976,1.147
		c2.459,0.62,4.928,1.204,7.392,1.806c1.586,0.388,3.122,0.903,4.535,1.747c1.964,1.173,3.075,2.909,3.415,5.152
		c0.247,1.626,0.243,3.245-0.255,4.832c-0.636,2.025-1.954,3.505-3.733,4.603c-1.486,0.917-3.119,1.42-4.834,1.684
		c-1.226,0.189-2.46,0.256-3.698,0.222c-2.318-0.064-4.587-0.396-6.714-1.386c-1.924-0.895-3.488-2.201-4.546-4.066
		c-0.644-1.137-1.024-2.363-1.158-3.66c-0.059-0.572-0.066-1.149-0.095-1.723c-0.001-0.029,0.011-0.058,0.019-0.1
		C96.915,31.766,98.195,31.766,99.464,31.766z"/>
	<path style="fill:#19559C;" d="M1.566,41.813c0-10.551,0-21.087,0-31.637c7.302,0,14.594,0,21.903,0c0,1.239,0,2.478,0,3.742
		c-5.875,0-11.744,0-17.63,0c0,3.241,0,6.458,0,9.706c5.139,0,10.275,0,15.427,0c0,1.265,0,2.499,0,3.755c-5.138,0-10.27,0-15.434,0
		c0,4.822,0,9.62,0,14.433C4.397,41.813,2.994,41.813,1.566,41.813z"/>
	<path style="fill:#19559C;" d="M41.257,41.82c-1.305,0-2.565,0-3.841,0c0-7.669,0-15.33,0-23.011c1.202,0,2.41,0,3.652,0
		c0,1.099,0,2.199,0,3.299c0.02,0.007,0.04,0.015,0.061,0.022c0.16-0.211,0.323-0.419,0.478-0.633
		c0.771-1.063,1.729-1.912,2.893-2.522c0.965-0.505,1.995-0.778,3.082-0.849c1.433-0.094,2.842,0.032,4.192,0.541
		c2.248,0.848,3.586,2.5,4.146,4.811c0.194,0.802,0.277,1.618,0.277,2.442c0.001,5.197,0.001,10.394,0.001,15.592
		c0,0.092,0,0.184,0,0.295c-1.282,0-2.552,0-3.854,0c0-0.104,0-0.208,0-0.313c0-4.813,0.004-9.626-0.003-14.438
		c-0.001-0.971-0.125-1.929-0.463-2.849c-0.435-1.185-1.254-1.969-2.472-2.312c-1.323-0.373-2.656-0.406-3.97,0.022
		c-1.53,0.499-2.55,1.583-3.25,2.991c-0.565,1.137-0.863,2.356-0.881,3.617c-0.043,2.959-0.036,5.918-0.046,8.878
		c-0.005,1.376-0.001,2.752-0.001,4.129C41.257,41.622,41.257,41.712,41.257,41.82z"/>
	<path style="fill:#19559C;" d="M27.77,18.8c1.279,0,2.544,0,3.824,0c0,7.67,0,15.33,0,23.009c-1.268,0-2.538,0-3.824,0
		C27.77,34.147,27.77,26.487,27.77,18.8z"/>
	<path style="fill:#19559C;" d="M31.642,10.177c0,1.447,0,2.88,0,4.327c-1.305,0-2.599,0-3.912,0c0-1.436,0-2.875,0-4.327
		C29.027,10.177,30.322,10.177,31.642,10.177z"/>
</g>
<g>
</g>
<g>
</g>
<g>
</g>
<g>
</g>
<g>
</g>
<g>
</g>
</svg>
